<?xml version="1.0" encoding="UTF-8" standalone="no"?>
<!-- Created with Inkscape (http://www.inkscape.org/) -->

<svg
   xmlns:dc="http://purl.org/dc/elements/1.1/"
   xmlns:cc="http://creativecommons.org/ns#"
   xmlns:rdf="http://www.w3.org/1999/02/22-rdf-syntax-ns#"
   xmlns:svg="http://www.w3.org/2000/svg"
   xmlns="http://www.w3.org/2000/svg"
   xmlns:sodipodi="http://sodipodi.sourceforge.net/DTD/sodipodi-0.dtd"
   xmlns:inkscape="http://www.inkscape.org/namespaces/inkscape"
   width="218.47025mm"
   height="199.57143mm"
   viewBox="0 0 218.47025 199.57143"
   version="1.1"
   id="svg1999"
   inkscape:version="0.92.2 (5c3e80d, 2017-08-06)"
   sodipodi:docname="documentation.svg">
  <defs
     id="defs1993" />
  <sodipodi:namedview
     id="base"
     pagecolor="#ffffff"
     bordercolor="#666666"
     borderopacity="1.0"
     inkscape:pageopacity="0.0"
     inkscape:pageshadow="2"
     inkscape:zoom="0.35"
     inkscape:cx="960.28571"
     inkscape:cy="320.57142"
     inkscape:document-units="mm"
     inkscape:current-layer="layer1"
     showgrid="true"
     fit-margin-top="0"
     fit-margin-left="0"
     fit-margin-right="0"
     fit-margin-bottom="0"
     inkscape:window-width="1366"
     inkscape:window-height="706"
     inkscape:window-x="-8"
     inkscape:window-y="-8"
     inkscape:window-maximized="1">
    <inkscape:grid
       type="xygrid"
       id="grid2015"
       originx="148.24227"
       originy="-63.348815" />
  </sodipodi:namedview>
  <metadata
     id="metadata1996">
    <rdf:RDF>
      <cc:Work
         rdf:about="">
        <dc:format>image/svg+xml</dc:format>
        <dc:type
           rdf:resource="http://purl.org/dc/dcmitype/StillImage" />
        <dc:title></dc:title>
      </cc:Work>
    </rdf:RDF>
  </metadata>
  <g
     inkscape:label="Layer 1"
     inkscape:groupmode="layer"
     id="layer1"
     transform="translate(148.24227,-34.079761)">
    <g
       transform="translate(47.927382,44.752379)"
       id="layer1-5"
       inkscape:label="Layer 1"
       style="fill:none">
      <rect
         y="-10.672618"
         x="-196.16965"
         height="199.57143"
         width="218.47025"
         id="rect2101"
         style="opacity:1;fill:none;fill-opacity:1;stroke:none;stroke-width:0.91783959;stroke-miterlimit:4;stroke-dasharray:none;stroke-dashoffset:0;stroke-opacity:0.7292818" />
    </g>
    <g
       id="g196"
       transform="matrix(1.4443024,0,0,1.4443024,-99.310376,60.458616)"
       style="fill:#005544">
      <path
         id="path182"
         d="m 85.3,20.57 c -0.684,-0.532 -1.556,-0.654 -2.326,-0.319 l -37.17,16.1 c -1.616,0.703 -3.639,1.042 -5.717,1.042 -2.897,0.008 -5.895,-0.667 -7.984,-1.586 -0.748,-0.319 -1.372,-0.678 -1.813,-0.998 0.162,-0.079 0.346,-0.162 0.562,-0.246 l 33.818,-14.637 5.05,2.159 v -6.308 c 0,-0.939 -0.398,-1.829 -1.082,-2.354 -0.685,-0.532 -1.56,-0.654 -2.322,-0.319 l -37.21,16.09 c -1.146,0.466 -2.131,1.031 -2.967,1.86 -0.819,0.801 -1.527,2.124 -1.516,3.593 0,0.04 0.011,0.105 0.011,0.105 v 56.681 c 0,0.022 -0.007,0.049 -0.007,0.075 0,0.019 0.007,0.026 0.007,0.045 v 0.061 h 0.008 c 0.083,2.01 1.078,3.288 2.033,4.134 3,2.648 8.05,4.13 13.407,4.25 2.54,0 5.12,-0.402 7.502,-1.409 l 37.18,-16.11 c 0.984,-0.402 1.623,-1.473 1.623,-2.649 V 22.93 C 86.385,21.992 85.98,21.104 85.303,20.572"
         inkscape:connector-curvature="0"
         style="fill:#005544" />
      <path
         id="path184"
         d="M 61.722,9.794 C 61.655,8.945 61.309,8.144 60.677,7.656 59.997,7.124 59.121,7.002 58.347,7.337 l -37.17,16.1 C 19.561,24.136 17.534,24.48 15.459,24.48 12.562,24.484 9.563,23.809 7.474,22.891 6.732,22.575 6.104,22.216 5.662,21.897 5.824,21.816 6.012,21.735 6.224,21.651 L 40.038,7.013 45.078,9.172 V 2.864 C 45.078,1.925 44.67,1.036 43.986,0.51 43.308,-0.022 42.419,-0.146 41.654,0.191 l -37.17,16.09 c -1.146,0.462 -2.127,1.028 -2.963,1.86 -0.823,0.801 -1.527,2.124 -1.516,3.595 0,0.041 0.011,0.103 0.011,0.103 v 56.683 c 0,0.022 -0.004,0.053 -0.004,0.075 0,0.015 0.004,0.022 0.004,0.082 v 0.075 h 0.007 c 0.081,2.01 1.079,3.288 2.033,4.123 3,2.649 8.05,4.085 13.41,4.22 1.447,0 2.901,-0.188 4.333,-0.458 V 34.768 c -0.038,-2.694 1.039,-5.28 2.933,-7.142 1.227,-1.212 2.724,-2.17 4.579,-2.909 L 61.727,9.793"
         inkscape:connector-curvature="0"
         style="fill:#005544" />
    </g>
  </g>
</svg>
