<?xml version="1.0" encoding="UTF-8" standalone="no"?>
<!-- Created with Inkscape (http://www.inkscape.org/) -->

<svg
   xmlns:dc="http://purl.org/dc/elements/1.1/"
   xmlns:cc="http://creativecommons.org/ns#"
   xmlns:rdf="http://www.w3.org/1999/02/22-rdf-syntax-ns#"
   xmlns:svg="http://www.w3.org/2000/svg"
   xmlns="http://www.w3.org/2000/svg"
   xmlns:sodipodi="http://sodipodi.sourceforge.net/DTD/sodipodi-0.dtd"
   xmlns:inkscape="http://www.inkscape.org/namespaces/inkscape"
   width="218.47025mm"
   height="199.57143mm"
   viewBox="0 0 218.47025 199.57143"
   version="1.1"
   id="svg1999"
   inkscape:version="0.92.2 (5c3e80d, 2017-08-06)"
   sodipodi:docname="linux.svg">
  <defs
     id="defs1993" />
  <sodipodi:namedview
     id="base"
     pagecolor="#ffffff"
     bordercolor="#666666"
     borderopacity="1.0"
     inkscape:pageopacity="0.0"
     inkscape:pageshadow="2"
     inkscape:zoom="0.35"
     inkscape:cx="960.28571"
     inkscape:cy="320.57142"
     inkscape:document-units="mm"
     inkscape:current-layer="layer1"
     showgrid="true"
     fit-margin-top="0"
     fit-margin-left="0"
     fit-margin-right="0"
     fit-margin-bottom="0"
     inkscape:window-width="1366"
     inkscape:window-height="706"
     inkscape:window-x="-8"
     inkscape:window-y="-8"
     inkscape:window-maximized="1">
    <inkscape:grid
       type="xygrid"
       id="grid2015"
       originx="148.24227"
       originy="-63.348815" />
  </sodipodi:namedview>
  <metadata
     id="metadata1996">
    <rdf:RDF>
      <cc:Work
         rdf:about="">
        <dc:format>image/svg+xml</dc:format>
        <dc:type
           rdf:resource="http://purl.org/dc/dcmitype/StillImage" />
        <dc:title></dc:title>
      </cc:Work>
    </rdf:RDF>
  </metadata>
  <g
     inkscape:label="Layer 1"
     inkscape:groupmode="layer"
     id="layer1"
     transform="translate(148.24227,-34.079761)">
    <g
       transform="translate(47.927382,44.752379)"
       id="layer1-5"
       inkscape:label="Layer 1"
       style="fill:none">
      <rect
         y="-10.672618"
         x="-196.16965"
         height="199.57143"
         width="218.47025"
         id="rect2101"
         style="opacity:1;fill:none;fill-opacity:1;stroke:none;stroke-width:0.91783959;stroke-miterlimit:4;stroke-dasharray:none;stroke-dashoffset:0;stroke-opacity:0.7292818" />
    </g>
    <g
       id="g2114"
       transform="matrix(5.0901364,0,0,5.0901364,-164.06429,-0.2224614)">
      <polygon
         id="polygon2055"
         points="28.4,17.9 20.1,18.2 20.2,20.5 18.6,23.5 16.1,28.4 15.6,32.5 17.4,38.3 21.5,40.6 27.7,40.6 33.5,36.2 36.1,29.3 30.1,22 "
         style="fill:#eceff1" />
      <path
         id="path2057"
         d="M 34.3,23.9 C 32.7,21.6 31.4,20.2 30.7,17.3 30,14.4 30.9,15.2 30.3,12.7 30,11.4 29.5,10.5 29,9.8 28.4,9.1 27.7,8.7 27.3,8.6 c -0.9,-0.5 -3,-1.3 -5.6,0.1 -2.7,1.4 -2.4,4.4 -1.9,10.5 0,0.4 -0.1,0.9 -0.3,1.3 -0.4,0.9 -1.1,1.7 -1.7,2.4 -0.7,1 -1.4,2 -1.9,3.1 -1.2,2.3 -2.3,5.2 -2,6.3 0.5,-0.1 6.8,9.5 6.8,9.7 0.4,-0.1 2.1,-0.1 3.6,-0.1 2.1,-0.1 3.3,-0.2 5,0.2 0,-0.3 -0.1,-0.6 -0.1,-0.9 0,-0.6 0.1,-1.1 0.2,-1.8 0.1,-0.5 0.2,-1 0.3,-1.6 -1,0.9 -2.8,1.9 -4.5,2.2 -1.5,0.3 -4,-0.2 -5.2,-1.7 0.1,0 0.3,0 0.4,-0.1 0.3,-0.1 0.6,-0.2 0.7,-0.4 0.3,-0.5 0.1,-1 -0.1,-1.3 -0.2,-0.3 -1.7,-1.4 -2.4,-2 -0.7,-0.6 -1.1,-0.9 -1.5,-1.3 0,0 -0.6,-0.6 -0.8,-0.8 C 16.1,32.2 16,32 15.9,31.9 15.7,31.4 15.6,30.8 15.7,30 c 0.1,-1.1 0.5,-2 1,-3 0.2,-0.4 0.7,-1.2 0.7,-1.2 0,0 -1.7,4.2 -0.8,5.5 0,0 0.1,-1.3 0.5,-2.6 0.3,-0.9 0.8,-2.2 1.4,-2.9 0.6,-0.7 2.1,-3.3 2.2,-4.9 0,-0.7 0.1,-1.4 0.1,-1.9 -0.4,-0.4 6.6,-1.4 7,-0.3 0.1,0.4 1.5,4 2.3,5.9 0.4,0.9 0.9,1.7 1.2,2.7 0.3,1.1 0.5,2.6 0.5,4.1 0,0.3 0,0.8 -0.1,1.3 0.2,0 4.1,-4.2 -0.5,-7.7 0,0 2.8,1.3 2.9,3.9 0.1,2.1 -0.8,3.8 -1,4.1 0.1,0 2.1,0.9 2.2,0.9 0.4,0 1.2,-0.3 1.2,-0.3 0.1,-0.3 0.4,-1.1 0.4,-1.4 0.7,-2.3 -1,-6 -2.6,-8.3 z"
         inkscape:connector-curvature="0"
         style="fill:#263238" />
      <g
         id="g2063">
        <ellipse
           id="ellipse2059"
           ry="2"
           rx="1.3"
           cy="15.3"
           cx="21.6"
           style="fill:#eceff1" />
        <ellipse
           id="ellipse2061"
           ry="2.3"
           rx="1.7"
           cy="15.2"
           cx="26.1"
           style="fill:#eceff1" />
      </g>
      <g
         id="g2069">
        <ellipse
           id="ellipse2065"
           ry="0.69999999"
           rx="1.2"
           cy="15.5"
           cx="21.700001"
           transform="matrix(-0.1254,-0.9921,0.9921,-0.1254,8.9754,38.9969)"
           style="fill:#212121" />
        <ellipse
           id="ellipse2067"
           ry="1.3"
           rx="1"
           cy="15.6"
           cx="26"
           style="fill:#212121" />
      </g>
      <g
         id="g2077">
        <path
           id="path2071"
           d="m 39.3,37.6 c -0.4,-0.2 -1.1,-0.5 -1.7,-1.4 -0.3,-0.5 -0.2,-1.9 -0.7,-2.5 -0.3,-0.4 -0.7,-0.2 -0.8,-0.2 -0.9,0.2 -3,1.6 -4.4,0 -0.2,-0.2 -0.5,-0.5 -1,-0.5 -0.5,0 -0.7,0.2 -0.9,0.6 -0.2,0.4 -0.2,0.7 -0.2,1.7 0,0.8 0,1.7 -0.1,2.4 -0.2,1.7 -0.5,2.7 -0.5,3.7 0,1.1 0.3,1.8 0.7,2.1 0.3,0.3 0.8,0.5 1.9,0.5 1.1,0 1.8,-0.4 2.5,-1.1 0.5,-0.5 0.9,-0.7 2.3,-1.7 1.1,-0.7 2.8,-1.6 3.1,-1.9 0.2,-0.2 0.5,-0.3 0.5,-0.9 0,-0.5 -0.4,-0.7 -0.7,-0.8 z"
           inkscape:connector-curvature="0"
           style="fill:#ffc107" />
        <path
           id="path2073"
           d="m 19.2,37.9 c -1,-1.6 -1.1,-1.9 -1.8,-2.9 -0.6,-1 -1.9,-2.9 -2.7,-2.9 -0.6,0 -0.9,0.3 -1.3,0.7 -0.4,0.4 -0.8,1.3 -1.5,1.8 -0.6,0.5 -2.3,0.4 -2.7,1 -0.4,0.6 0.4,1.5 0.4,3 0,0.6 -0.5,1 -0.6,1.4 -0.1,0.5 -0.2,0.8 0,1.2 0.4,0.6 0.9,0.8 4.3,1.5 1.8,0.4 3.5,1.4 4.6,1.5 1.1,0.1 3,0 3,-2.7 0.1,-1.6 -0.8,-2 -1.7,-3.6 z"
           inkscape:connector-curvature="0"
           style="fill:#ffc107" />
        <path
           id="path2075"
           d="M 21.1,19.8 C 20.5,19.4 20,19 20,18.4 c 0,-0.6 0.4,-0.8 1,-1.3 0.1,-0.1 1.2,-1.1 2.3,-1.1 1.1,0 2.4,0.7 2.9,0.9 0.9,0.2 1.8,0.4 1.7,1.1 -0.1,1 -0.2,1.2 -1.2,1.7 -0.7,0.2 -2,1.3 -2.9,1.3 -0.4,0 -1,0 -1.4,-0.1 -0.3,-0.1 -0.8,-0.6 -1.3,-1.1 z"
           inkscape:connector-curvature="0"
           style="fill:#ffc107" />
      </g>
      <g
         id="g2085">
        <path
           id="path2079"
           d="m 20.9,19 c 0.2,0.2 0.5,0.4 0.8,0.5 0.2,0.1 0.5,0.2 0.5,0.2 0.4,0 0.7,0 0.9,0 0.5,0 1.2,-0.2 1.9,-0.6 0.7,-0.3 0.8,-0.5 1.3,-0.7 0.5,-0.3 1,-0.6 0.8,-0.7 -0.2,-0.1 -0.4,0 -1.1,0.4 -0.6,0.4 -1.1,0.6 -1.7,0.9 -0.3,0.1 -0.7,0.3 -1,0.3 -0.3,0 -0.6,0 -0.9,0 -0.3,0 -0.5,-0.1 -0.8,-0.2 -0.2,-0.1 -0.3,-0.2 -0.4,-0.2 -0.2,-0.1 -0.6,-0.5 -0.8,-0.6 0,0 -0.2,0 -0.1,0.1 0.3,0.3 0.4,0.4 0.6,0.6 z"
           inkscape:connector-curvature="0"
           style="fill:#634703" />
        <path
           id="path2081"
           d="m 23.9,16.8 c 0.1,0.2 0.3,0.2 0.4,0.3 0.1,0.1 0.2,0.1 0.2,0.1 0.1,-0.1 0,-0.3 -0.1,-0.3 0,-0.2 -0.5,-0.2 -0.5,-0.1 z"
           inkscape:connector-curvature="0"
           style="fill:#634703" />
        <path
           id="path2083"
           d="m 22.3,17 c 0,0.1 0.2,0.2 0.2,0.1 0.1,-0.1 0.2,-0.2 0.3,-0.2 0.2,-0.1 0.1,-0.2 -0.2,-0.2 -0.2,0.1 -0.2,0.2 -0.3,0.3 z"
           inkscape:connector-curvature="0"
           style="fill:#634703" />
      </g>
      <path
         id="path2087"
         d="m 32,34.7 c 0,0.1 0,0.2 0,0.3 0.2,0.4 0.7,0.5 1.1,0.5 0.6,0 1.2,-0.4 1.5,-0.8 0,-0.1 0.1,-0.2 0.2,-0.3 0.2,-0.3 0.3,-0.5 0.4,-0.6 0,0 -0.1,-0.1 -0.1,-0.2 -0.1,-0.2 -0.4,-0.4 -0.8,-0.5 -0.3,-0.1 -0.8,-0.2 -1,-0.2 -0.9,-0.1 -1.4,0.2 -1.7,0.5 0,0 0.1,0 0.1,0.1 0.2,0.2 0.3,0.4 0.3,0.7 0.1,0.2 0,0.3 0,0.5 z"
         inkscape:connector-curvature="0"
         style="fill:#455a64" />
    </g>
  </g>
</svg>
