<?xml version="1.0" encoding="UTF-8" standalone="no"?>
<svg
   xmlns:dc="http://purl.org/dc/elements/1.1/"
   xmlns:cc="http://creativecommons.org/ns#"
   xmlns:rdf="http://www.w3.org/1999/02/22-rdf-syntax-ns#"
   xmlns:svg="http://www.w3.org/2000/svg"
   xmlns="http://www.w3.org/2000/svg"
   xmlns:sodipodi="http://sodipodi.sourceforge.net/DTD/sodipodi-0.dtd"
   xmlns:inkscape="http://www.inkscape.org/namespaces/inkscape"
   viewBox="0 0 825.71429 754.28569"
   version="1.1"
   id="svg42"
   sodipodi:docname="pencil.svg"
   inkscape:version="0.92.2 (5c3e80d, 2017-08-06)"
   width="825.71429"
   height="754.28571">
  <metadata
     id="metadata48">
    <rdf:RDF>
      <cc:Work
         rdf:about="">
        <dc:format>image/svg+xml</dc:format>
        <dc:type
           rdf:resource="http://purl.org/dc/dcmitype/StillImage" />
        <dc:title></dc:title>
      </cc:Work>
    </rdf:RDF>
  </metadata>
  <defs
     id="defs46" />
  <sodipodi:namedview
     pagecolor="#ffffff"
     bordercolor="#666666"
     borderopacity="1"
     objecttolerance="10"
     gridtolerance="10"
     guidetolerance="10"
     inkscape:pageopacity="0"
     inkscape:pageshadow="2"
     inkscape:window-width="1366"
     inkscape:window-height="706"
     id="namedview44"
     showgrid="true"
     inkscape:zoom="0.35010022"
     inkscape:cx="-116.00013"
     inkscape:cy="384.00011"
     inkscape:window-x="-8"
     inkscape:window-y="-8"
     inkscape:window-maximized="1"
     inkscape:current-layer="svg42"
     fit-margin-top="0"
     fit-margin-left="0"
     fit-margin-right="0"
     fit-margin-bottom="0">
    <inkscape:grid
       type="xygrid"
       id="grid1427"
       originx="-180"
       originy="320.00001" />
  </sodipodi:namedview>
  <g
     transform="matrix(3.7795276,0,0,3.7795276,741.4286,40.337454)"
     id="layer1"
     inkscape:label="Layer 1"
     style="fill:none">
    <rect
       y="-10.672618"
       x="-196.16965"
       height="199.57143"
       width="218.47025"
       id="rect2101"
       style="opacity:1;fill:none;fill-opacity:1;stroke:none;stroke-width:0.91783959;stroke-miterlimit:4;stroke-dasharray:none;stroke-dashoffset:0;stroke-opacity:0.7292818" />
  </g>
  <g
     id="g1448"
     transform="matrix(4.0838211,0,0,4.0838211,156.94344,112.383)">
    <path
       d="M 125.7537,46.881188 62.492769,109.71874 2.2268333,125.7589 18.37009,65.91508 82.282258,2.4306542"
       id="path30"
       inkscape:connector-curvature="0"
       style="fill:none;stroke:#000000;stroke-width:4.47349787;stroke-linecap:round;stroke-linejoin:round" />
    <path
       d="m 63.309471,108.20814 -2.69024,-9.723769 a 2.2313802,3.8143289 14.534595 0 1 1.373871,-5.216307 L 122.00329,33.659505 a 2.2313802,3.8143289 14.534595 0 1 3.04567,0.826346 l 2.69024,9.723773 a 2.2313802,3.8143289 14.534595 0 1 -1.37387,5.216307 L 66.35514,109.03449 a 2.2313802,3.8143289 14.534595 0 1 -3.045669,-0.82635"
       id="path32"
       inkscape:connector-curvature="0"
       style="fill:#803300;fill-opacity:1;stroke-width:1.5966239" />
    <path
       d="M 55.026414,90.107317 38.137538,73.331473 a 2.3580807,3.1147407 45.709075 0 1 0.536677,-3.856876 L 99.64549,8.9113844 a 2.3580807,3.1147407 45.709075 0 1 3.88286,-0.5330857 l 16.88888,16.7758443 a 2.3580807,3.1147407 45.709075 0 1 -0.53668,3.856876 L 58.909277,89.574232 a 2.3580807,3.1147407 45.709075 0 1 -3.882863,0.533085"
       id="path34"
       inkscape:connector-curvature="0"
       style="fill:#803300;fill-opacity:1;stroke-width:1.71254814" />
    <path
       d="m 19.890966,65.103579 9.864271,2.625432 a 2.2062168,3.8441612 75.654652 0 0 5.257084,-1.38392 L 95.983596,5.7818779 A 2.2062168,3.8441612 75.654652 0 0 95.146051,2.7758371 L 85.28178,0.15040486 A 2.2062168,3.8441612 75.654652 0 0 80.024696,1.534325 L 19.053421,62.097538 a 2.2062168,3.8441612 75.654652 0 0 0.837545,3.006041"
       id="path36"
       inkscape:connector-curvature="0"
       style="fill:#803300;fill-opacity:1;stroke-width:1.5937053" />
    <path
       d="M 2.242298,125.75242 33.236993,117.52581 10.522786,94.963621 2.2407515,125.75088 Z"
       id="path38"
       inkscape:connector-curvature="0"
       style="fill:#4d4d4d;fill-opacity:1;stroke:#000000;stroke-width:4.47349787;stroke-linecap:round;stroke-linejoin:round" />
  </g>
</svg>
