<?xml version="1.0" encoding="UTF-8" standalone="no"?>
<!-- Created with Inkscape (http://www.inkscape.org/) -->

<svg
   xmlns:dc="http://purl.org/dc/elements/1.1/"
   xmlns:cc="http://creativecommons.org/ns#"
   xmlns:rdf="http://www.w3.org/1999/02/22-rdf-syntax-ns#"
   xmlns:svg="http://www.w3.org/2000/svg"
   xmlns="http://www.w3.org/2000/svg"
   xmlns:sodipodi="http://sodipodi.sourceforge.net/DTD/sodipodi-0.dtd"
   xmlns:inkscape="http://www.inkscape.org/namespaces/inkscape"
   width="218.47025mm"
   height="199.57143mm"
   viewBox="0 0 218.47025 199.57143"
   version="1.1"
   id="svg1999"
   inkscape:version="0.92.2 (5c3e80d, 2017-08-06)"
   sodipodi:docname="support.svg">
  <defs
     id="defs1993" />
  <sodipodi:namedview
     id="base"
     pagecolor="#ffffff"
     bordercolor="#666666"
     borderopacity="1.0"
     inkscape:pageopacity="0.0"
     inkscape:pageshadow="2"
     inkscape:zoom="0.35"
     inkscape:cx="960.28571"
     inkscape:cy="320.57142"
     inkscape:document-units="mm"
     inkscape:current-layer="layer1"
     showgrid="true"
     fit-margin-top="0"
     fit-margin-left="0"
     fit-margin-right="0"
     fit-margin-bottom="0"
     inkscape:window-width="1366"
     inkscape:window-height="706"
     inkscape:window-x="-8"
     inkscape:window-y="-8"
     inkscape:window-maximized="1">
    <inkscape:grid
       type="xygrid"
       id="grid2015"
       originx="148.24227"
       originy="-63.348815" />
  </sodipodi:namedview>
  <metadata
     id="metadata1996">
    <rdf:RDF>
      <cc:Work
         rdf:about="">
        <dc:format>image/svg+xml</dc:format>
        <dc:type
           rdf:resource="http://purl.org/dc/dcmitype/StillImage" />
        <dc:title></dc:title>
      </cc:Work>
    </rdf:RDF>
  </metadata>
  <g
     inkscape:label="Layer 1"
     inkscape:groupmode="layer"
     id="layer1"
     transform="translate(148.24227,-34.079761)">
    <g
       transform="translate(47.927382,44.752379)"
       id="layer1-5"
       inkscape:label="Layer 1"
       style="fill:none">
      <rect
         y="-10.672618"
         x="-196.16965"
         height="199.57143"
         width="218.47025"
         id="rect2101"
         style="opacity:1;fill:none;fill-opacity:1;stroke:none;stroke-width:0.91783959;stroke-miterlimit:4;stroke-dasharray:none;stroke-dashoffset:0;stroke-opacity:0.7292818" />
    </g>
    <g
       id="g140"
       transform="matrix(0.15476481,0,0,0.15476481,-114.70136,57.869544)"
       style="fill:#008000">
      <g
         id="g108"
         style="fill:#008000">
        <g
           id="g106"
           style="fill:#008000">
          <g
             id="g104"
             style="fill:#008000">
            <path
               id="path98"
               d="M 795.4,680.8 C 710,680.8 640.8,750 640.8,835.4 640.8,920.8 710,990 795.4,990 880.8,990 950,920.8 950,835.4 950,750 880.8,680.8 795.4,680.8 Z m 100.4,229.5 -24.2,24.2 c -2,2 -5.2,2 -7.2,0 l -47.6,-47.6 -1.8,1.8 c -2,2 -5.2,2 -7.2,0 l -11.5,-11.6 c -2,-2 -2,-5.2 0,-7.2 L 808.1,858.1 797.6,847.6 771,874 c 4.9,14 1.8,30.3 -9.4,41.5 -7.6,7.6 -17.7,11.7 -28.4,11.7 -0.9,0 -1.8,-0.4 -2.4,-1 -0.3,-0.3 -0.6,-0.7 -0.7,-1.1 -0.5,-1.3 -0.2,-2.8 0.7,-3.7 l 11.1,-11.1 -6.6,-24.8 -24.8,-6.7 -11.1,11.1 c -1,1 -2.5,1.3 -3.7,0.7 -1.3,-0.5 -2.1,-1.8 -2.1,-3.1 -0.1,-10.7 4.1,-20.8 11.7,-28.4 11.2,-11.2 27.5,-14.3 41.5,-9.4 l 26.5,-26.5 -35,-35 -24.8,-16 -11.1,-19.5 11.6,-11.7 19.5,11.1 16,24.8 35,35 23.7,-23.7 c -4.9,-14 -1.8,-30.3 9.4,-41.5 7.6,-7.6 17.7,-11.7 28.4,-11.7 1.4,0 2.6,0.8 3.2,2.1 0.5,1.3 0.2,2.8 -0.7,3.7 l -11.1,11.1 6.7,24.8 24.8,6.7 11.1,-11.1 c 1,-1 2.4,-1.3 3.7,-0.7 1.3,0.5 2.1,1.8 2.1,3.1 0,10.7 -4.1,20.8 -11.7,28.4 -11.2,11.2 -27.5,14.3 -41.5,9.4 l -23.7,23.7 10.5,10.5 11.8,-11.8 c 2,-2 5.2,-2 7.2,0 l 11.5,11.5 c 2,2 2,5.2 0,7.2 l -1.8,1.8 47.6,47.6 c 2.1,2.1 2.1,5.3 0.1,7.3 z"
               inkscape:connector-curvature="0"
               style="fill:#008000" />
            <path
               id="path100"
               d="m 714.3,660.6 -95,-37.9 -46.1,-38.8 C 561,573.6 543,574.4 531.7,585.6 l -64.1,63.7 -64.3,-63.8 C 392,574.3 374,573.6 361.9,583.8 l -46.1,38.8 -196.9,78.5 C 55.4,726.5 55.5,951.1 50,971.7 H 655.8 C 620,937.2 597.7,888.9 597.7,835.4 597.8,756.8 646,689.2 714.3,660.6 Z"
               inkscape:connector-curvature="0"
               style="fill:#008000" />
            <path
               id="path102"
               d="m 242.1,381.5 37,-0.1 c 22.8,119.4 103.9,187.3 188.5,187.3 84.6,0 133.8,-40.2 166.4,-114.3 -24.9,19.5 -61.1,37.4 -111.7,41.1 -4.6,6.9 -12.5,11.5 -21.5,11.5 h -23.6 c -14.3,0 -25.9,-11.6 -25.9,-25.9 0,-14.3 11.6,-25.9 25.9,-25.9 h 23.6 c 8.4,0 15.8,4 20.5,10.2 81.3,-6.5 119.6,-55.9 134.8,-83.7 H 693 c 22.6,0 40.9,-18.3 40.9,-40.9 V 248 c 0,-14.5 -7.5,-27.2 -18.9,-34.5 C 701.4,99.2 595.6,10 467.5,10 339.4,10 233.7,99.2 220,213.4 c -11.4,7.3 -18.9,20 -18.9,34.5 v 92.8 c 0,22.5 18.3,40.8 41,40.8 z M 467.5,56.4 c 100.8,0 184.6,66.5 200.1,153.2 -4.8,1.8 -9.2,4.5 -13,8 C 630.5,141.3 560.8,96 467.5,96 c -93.2,0 -163,45.3 -187.2,121.4 -3.7,-3.4 -8.1,-6.1 -12.9,-7.9 15.5,-86.6 99.4,-153.1 200.1,-153.1 z"
               inkscape:connector-curvature="0"
               style="fill:#008000" />
          </g>
        </g>
      </g>
      <g
         id="g110"
         style="fill:#008000" />
      <g
         id="g112"
         style="fill:#008000" />
      <g
         id="g114"
         style="fill:#008000" />
      <g
         id="g116"
         style="fill:#008000" />
      <g
         id="g118"
         style="fill:#008000" />
      <g
         id="g120"
         style="fill:#008000" />
      <g
         id="g122"
         style="fill:#008000" />
      <g
         id="g124"
         style="fill:#008000" />
      <g
         id="g126"
         style="fill:#008000" />
      <g
         id="g128"
         style="fill:#008000" />
      <g
         id="g130"
         style="fill:#008000" />
      <g
         id="g132"
         style="fill:#008000" />
      <g
         id="g134"
         style="fill:#008000" />
      <g
         id="g136"
         style="fill:#008000" />
      <g
         id="g138"
         style="fill:#008000" />
    </g>
  </g>
</svg>
