<?xml version="1.0" encoding="UTF-8" standalone="no"?>
<!-- Created with Inkscape (http://www.inkscape.org/) -->

<svg
   xmlns:dc="http://purl.org/dc/elements/1.1/"
   xmlns:cc="http://creativecommons.org/ns#"
   xmlns:rdf="http://www.w3.org/1999/02/22-rdf-syntax-ns#"
   xmlns:svg="http://www.w3.org/2000/svg"
   xmlns="http://www.w3.org/2000/svg"
   xmlns:sodipodi="http://sodipodi.sourceforge.net/DTD/sodipodi-0.dtd"
   xmlns:inkscape="http://www.inkscape.org/namespaces/inkscape"
   width="218.47025mm"
   height="199.57143mm"
   viewBox="0 0 218.47025 199.57143"
   version="1.1"
   id="svg1015"
   inkscape:version="0.92.2 (5c3e80d, 2017-08-06)"
   sodipodi:docname="theme-icon.svg">
  <defs
     id="defs1009" />
  <sodipodi:namedview
     id="base"
     pagecolor="#ffffff"
     bordercolor="#666666"
     borderopacity="1.0"
     inkscape:pageopacity="0.0"
     inkscape:pageshadow="2"
     inkscape:zoom="0.35"
     inkscape:cx="792.85712"
     inkscape:cy="387.73584"
     inkscape:document-units="mm"
     inkscape:current-layer="layer1"
     showgrid="true"
     fit-margin-top="0"
     fit-margin-left="0"
     fit-margin-right="0"
     fit-margin-bottom="0"
     inkscape:window-width="1366"
     inkscape:window-height="706"
     inkscape:window-x="-8"
     inkscape:window-y="-8"
     inkscape:window-maximized="1">
    <inkscape:grid
       type="xygrid"
       id="grid247" />
  </sodipodi:namedview>
  <metadata
     id="metadata1012">
    <rdf:RDF>
      <cc:Work
         rdf:about="">
        <dc:format>image/svg+xml</dc:format>
        <dc:type
           rdf:resource="http://purl.org/dc/dcmitype/StillImage" />
        <dc:title />
      </cc:Work>
    </rdf:RDF>
  </metadata>
  <g
     inkscape:label="Layer 1"
     inkscape:groupmode="layer"
     id="layer1"
     transform="translate(196.16965,10.672618)">
    <rect
       style="opacity:1;fill:#ffffff;fill-opacity:1;stroke:none;stroke-width:0.91783959;stroke-miterlimit:4;stroke-dasharray:none;stroke-dashoffset:0;stroke-opacity:0.7292818"
       id="rect2101"
       width="218.47025"
       height="199.57143"
       x="-196.16965"
       y="-10.672618" />
    <path
       inkscape:connector-curvature="0"
       d="m -149.05315,25.668688 h 126.563873 a 6.3145923,6.3145923 0 0 1 6.31455,6.314546 V 144.7065 a 6.3145923,6.3145923 0 0 1 -6.31455,6.31455 H -149.05315 a 6.3145923,6.3145923 0 0 1 -6.31465,-6.31455 V 31.983234 a 6.3145923,6.3145923 0 0 1 6.31465,-6.314546"
       id="path4572"
       style="fill:#cccccc;fill-opacity:0.4198895;fill-rule:evenodd;stroke-width:2.66731095" />
    <path
       inkscape:connector-curvature="0"
       d="m -147.81871,25.368873 c -3.42992,0 -6.19146,2.761234 -6.19146,6.191355 v 10.881016 c 0,3.429918 2.76124,6.191354 6.19146,6.191354 h 124.093883 c 3.42992,0 6.19135,-2.761133 6.19135,-6.191354 V 31.560228 c 0,-3.429919 -2.76123,-6.191355 -6.19135,-6.191355 z"
       id="path4574"
       style="fill:#637fce;fill-opacity:0.72375692;fill-rule:evenodd;stroke-width:2.66731095" />
    <path
       inkscape:connector-curvature="0"
       d="m -25.489037,33.556401 -7.21771,7.21782 m -0.16735,-7.385772 7.38577,7.385772"
       id="path4576"
       style="fill:#ff0000;stroke:#be3333;stroke-width:5.00120831;stroke-linecap:round;stroke-linejoin:round;stroke-opacity:1" />
    <path
       inkscape:connector-curvature="0"
       style="fill:none;stroke:#333333;stroke-width:8.33534718;stroke-linecap:round;stroke-linejoin:round"
       d="m -154.01017,31.559925 v 10.881117 c 0,3.429818 2.76124,6.191354 6.19146,6.191354 h 125.622293 c 3.42982,0 6.19135,-2.761234 6.19135,-6.191354 V 31.559925"
       id="path4578" />
    <path
       inkscape:connector-curvature="0"
       style="fill:none;stroke:#333333;stroke-width:8.33534718;stroke-linecap:round;stroke-linejoin:round"
       d="m -149.05315,25.668688 h 126.563873 a 6.3145923,6.3145923 0 0 1 6.31455,6.314546 V 144.7065 a 6.3145923,6.3145923 0 0 1 -6.31455,6.31455 H -149.05315 a 6.3145923,6.3145923 0 0 1 -6.31465,-6.31455 V 31.983234 a 6.3145923,6.3145923 0 0 1 6.31465,-6.314546"
       id="path4580" />
    <path
       inkscape:connector-curvature="0"
       d="m -135.31543,72.482142 h 41.669191 m -42.132321,40.742868 h 41.206067"
       id="path4582"
       style="fill:none;stroke:#33b68d;stroke-width:10.0024147;stroke-linecap:round;stroke-linejoin:round;stroke-opacity:1" />
    <path
       inkscape:connector-curvature="0"
       d="m -125.59224,88.686622 h 53.244993 m 11.11188,0 h 25.00182 m -89.359193,41.206098 h 53.244993 m 11.5747,0 h 25.00182"
       id="path4584"
       style="fill:none;stroke:#8e3333;stroke-width:6.66836214;stroke-linecap:round;stroke-linejoin:round;stroke-opacity:1" />
  </g>
</svg>
