<?xml version="1.0" encoding="UTF-8" standalone="no"?>
<svg
   xmlns:dc="http://purl.org/dc/elements/1.1/"
   xmlns:cc="http://creativecommons.org/ns#"
   xmlns:rdf="http://www.w3.org/1999/02/22-rdf-syntax-ns#"
   xmlns:svg="http://www.w3.org/2000/svg"
   xmlns="http://www.w3.org/2000/svg"
   xmlns:sodipodi="http://sodipodi.sourceforge.net/DTD/sodipodi-0.dtd"
   xmlns:inkscape="http://www.inkscape.org/namespaces/inkscape"
   version="1.1"
   viewBox="0 0 825.71429 754.28571"
   id="svg5149"
   sodipodi:docname="tools.svg"
   inkscape:version="0.92.2 (5c3e80d, 2017-08-06)"
   width="825.71429"
   height="754.28571">
  <metadata
     id="metadata5155">
    <rdf:RDF>
      <cc:Work
         rdf:about="">
        <dc:format>image/svg+xml</dc:format>
        <dc:type
           rdf:resource="http://purl.org/dc/dcmitype/StillImage" />
        <dc:title></dc:title>
      </cc:Work>
    </rdf:RDF>
  </metadata>
  <defs
     id="defs5153" />
  <sodipodi:namedview
     pagecolor="#ffffff"
     bordercolor="#666666"
     borderopacity="1"
     objecttolerance="10"
     gridtolerance="10"
     guidetolerance="10"
     inkscape:pageopacity="0"
     inkscape:pageshadow="2"
     inkscape:window-width="1366"
     inkscape:window-height="706"
     id="namedview5151"
     showgrid="true"
     inkscape:zoom="0.37820513"
     inkscape:cx="1000"
     inkscape:cy="158.00002"
     inkscape:window-x="-8"
     inkscape:window-y="-8"
     inkscape:window-maximized="1"
     inkscape:current-layer="svg5149"
     fit-margin-top="0"
     fit-margin-left="0"
     fit-margin-right="0"
     fit-margin-bottom="0">
    <inkscape:grid
       type="xygrid"
       id="grid863"
       originx="919.99999"
       originy="80.000021" />
  </sodipodi:namedview>
  <g
     transform="matrix(3.7795276,0,0,3.7795276,741.4286,40.337454)"
     id="layer1"
     inkscape:label="Layer 1"
     style="fill:none">
    <rect
       y="-10.672618"
       x="-196.16965"
       height="199.57143"
       width="218.47025"
       id="rect2101"
       style="opacity:1;fill:none;fill-opacity:1;stroke:none;stroke-width:0.91783959;stroke-miterlimit:4;stroke-dasharray:none;stroke-dashoffset:0;stroke-opacity:0.7292818" />
  </g>
  <path
     d="m 207.90476,99.786114 -6.8446,13.689186 71.86819,41.06752 c 0,34.22295 -13.68918,61.60131 -44.48983,78.71278 l -71.86818,-41.06753 -3.4223,6.84458 c 17.11147,51.33442 51.33442,85.55737 119.78031,85.55737 17.11147,0 68.44589,51.33441 95.82424,78.71277 l 54.75671,-54.75671 c -27.37836,-27.37836 -88.97965,-88.97966 -88.97965,-106.09114 0,-61.60129 -17.11147,-102.668826 -126.62489,-102.668826 z m 427.7868,17.111476 -68.44589,47.91212 -6.84459,27.37836 -198.49308,198.49307 -27.37835,-17.11147 -13.68918,13.68918 c 0,41.06753 -47.91212,61.6013 -68.44589,61.6013 L 139.45887,561.79586 c 0,34.22295 37.64523,71.86819 71.86818,71.86819 L 324.26276,520.72834 c 0,-20.53377 20.53377,-68.44589 61.60131,-68.44589 l 13.68917,-13.68919 -17.11147,-27.37835 198.49308,-198.49308 27.37835,-6.84459 47.91213,-68.44588 z M 464.57684,349.6136 409.82013,404.37032 c 41.06753,41.06754 95.82424,95.82425 95.82424,112.93572 0,61.6013 17.11147,102.66883 126.62489,102.66883 l 6.84459,-13.68918 -71.86818,-41.06753 c 0,-34.22294 13.68918,-61.6013 44.48983,-78.71277 l 71.86818,41.06753 3.42229,-6.84458 c -17.11147,-51.33442 -51.33441,-85.55737 -119.7803,-85.55737 -17.11147,0 -61.6013,-44.48983 -102.66883,-85.55737 z"
     id="path5147"
     style="fill:#800000;stroke-width:3.42229438"
     inkscape:connector-curvature="0" />
</svg>
