<?xml version="1.0" encoding="UTF-8" standalone="no"?>
<!-- Created with Inkscape (http://www.inkscape.org/) -->

<svg
   xmlns:dc="http://purl.org/dc/elements/1.1/"
   xmlns:cc="http://creativecommons.org/ns#"
   xmlns:rdf="http://www.w3.org/1999/02/22-rdf-syntax-ns#"
   xmlns:svg="http://www.w3.org/2000/svg"
   xmlns="http://www.w3.org/2000/svg"
   xmlns:sodipodi="http://sodipodi.sourceforge.net/DTD/sodipodi-0.dtd"
   xmlns:inkscape="http://www.inkscape.org/namespaces/inkscape"
   width="218.47025mm"
   height="199.57143mm"
   viewBox="0 0 218.47024 199.57142"
   version="1.1"
   id="svg8"
   inkscape:version="0.92.2 (5c3e80d, 2017-08-06)"
   sodipodi:docname="wordpress-blue.svg">
  <defs
     id="defs2" />
  <sodipodi:namedview
     id="base"
     pagecolor="#ffffff"
     bordercolor="#666666"
     borderopacity="1.0"
     inkscape:pageopacity="0.0"
     inkscape:pageshadow="2"
     inkscape:zoom="0.35"
     inkscape:cx="1147.1429"
     inkscape:cy="156"
     inkscape:document-units="mm"
     inkscape:current-layer="layer1"
     showgrid="true"
     fit-margin-top="0"
     fit-margin-left="0"
     fit-margin-right="0"
     fit-margin-bottom="0"
     inkscape:window-width="1366"
     inkscape:window-height="706"
     inkscape:window-x="-8"
     inkscape:window-y="-8"
     inkscape:window-maximized="1">
    <inkscape:grid
       type="xygrid"
       id="grid32"
       originx="239.6389"
       originy="31.82759" />
  </sodipodi:namedview>
  <metadata
     id="metadata5">
    <rdf:RDF>
      <cc:Work
         rdf:about="">
        <dc:format>image/svg+xml</dc:format>
        <dc:type
           rdf:resource="http://purl.org/dc/dcmitype/StillImage" />
        <dc:title></dc:title>
      </cc:Work>
    </rdf:RDF>
  </metadata>
  <g
     inkscape:label="Layer 1"
     inkscape:groupmode="layer"
     id="layer1"
     transform="translate(197.68155,9.4630896)">
    <g
       transform="translate(-1.5119019,1.2095283)"
       id="layer1-7"
       inkscape:label="Layer 1"
       style="fill:none">
      <rect
         y="-10.672618"
         x="-196.16965"
         height="199.57143"
         width="218.47025"
         id="rect2101"
         style="opacity:1;fill:none;fill-opacity:1;stroke:none;stroke-width:0.91783959;stroke-miterlimit:4;stroke-dasharray:none;stroke-dashoffset:0;stroke-opacity:0.7292818" />
    </g>
    <g
       style="fill:#27799d;fill-opacity:1;fill-rule:evenodd"
       id="g47"
       transform="matrix(23.8125,0,0,23.8125,-156.85435,25.92051)">
      <g
         id="g35"
         transform="matrix(1.0755,0,0,1.0755,-3.5103,-1.6684)"
         style="fill:#27799d;fill-opacity:1">
        <path
           id="path33"
           d="m 5.8465,1.9131 c 0.57932,0 1.1068,0.222 1.5022,0.58547 -0.1938,-0.0052 -0.3872,0.11 -0.3952,0.3738 -0.0163,0.5333 0.6377,0.6469 0.2853,1.7196 L 6.9473,5.47927 6.1534,3.14067 c -0.0123,-0.0362 0.002,-0.0568 0.0465,-0.0568 h 0.22445 c 0.011665,0 0.021201,-0.00996 0.021201,-0.022158 v -0.13294 c 0,-0.012193 -0.00956,-0.022657 -0.021201,-0.022153 -0.42505,0.018587 -0.8476,0.018713 -1.2676,0 -0.0117,-5e-4 -0.0212,0.01 -0.0212,0.0222 v 0.13294 c 0,0.012185 0.00954,0.022158 0.021201,0.022158 h 0.22568 c 0.050201,0 0.064256,0.016728 0.076091,0.049087 l 0.3262,0.8921 -0.4907,1.4817 -0.8066,-2.3758 c -0.01,-0.0298 0.0021,-0.0471 0.0308,-0.0471 h 0.25715 c 0.011661,0 0.021197,-0.00996 0.021197,-0.022158 v -0.13294 c 0,-0.012193 -0.00957,-0.022764 -0.021197,-0.022153 -0.2698,0.014331 -0.54063,0.017213 -0.79291,0.019803 0.39589,-0.60984 1.0828,-1.0134 1.8639,-1.0134 l -2.9e-6,-6.2e-6 z m 1.9532,1.1633 c 0.17065,0.31441 0.26755,0.67464 0.26755,1.0574 0,0.84005 -0.46675,1.5712 -1.1549,1.9486 l 0.6926,-1.9617 c 0.1073,-0.3036 0.2069,-0.7139 0.1947,-1.0443 h -4e-6 z M 6.59,6.2268 C 6.3575,6.3095 6.1073,6.3546 5.8465,6.3546 5.6218,6.3546 5.405,6.3211 5.2006,6.2591 L 5.88475,4.2985 6.58999,6.2269 v -10e-8 z M 4.8962,6.1414 C 4.14519,5.78523 3.6257,5.0201 3.6257,4.1339 c 0,-0.32852 0.071465,-0.64038 0.19955,-0.92096 l 1.071,2.9285 3e-6,-3e-6 z M 5.84643,1.7047 c 1.3413,0 2.4291,1.0878 2.4291,2.4291 0,1.3413 -1.0878,2.4291 -2.4291,2.4291 -1.3413,0 -2.4291,-1.0878 -2.4291,-2.4291 0,-1.3413 1.0878,-2.4291 2.4291,-2.4291 z m 0,-0.15354 c 1.4261,0 2.5827,1.1566 2.5827,2.5827 0,1.4261 -1.1566,2.5827 -2.5827,2.5827 -1.4261,0 -2.5827,-1.1566 -2.5827,-2.5827 0,-1.4261 1.1566,-2.5827 2.5827,-2.5827 z"
           inkscape:connector-curvature="0"
           style="fill:#27799d;fill-opacity:1" />
      </g>
    </g>
  </g>
</svg>
